<?xml version="1.0" encoding="UTF-8" standalone="no"?>
<!DOCTYPE svg PUBLIC "-//W3C//DTD SVG 1.1//EN" "http://www.w3.org/Graphics/SVG/1.1/DTD/svg11.dtd">
<svg width="100%" height="100%" viewBox="0 0 128 128" version="1.1" xmlns="http://www.w3.org/2000/svg" xmlns:xlink="http://www.w3.org/1999/xlink" xml:space="preserve" xmlns:serif="http://www.serif.com/" style="fill-rule:evenodd;clip-rule:evenodd;stroke-linejoin:round;stroke-miterlimit:2;">
    <path d="M128,24L128,104C128,117.246 117.246,128 104,128L24,128C10.754,128 0,117.246 0,104L0,24C0,10.754 10.754,0 24,0L104,0C117.246,0 128,10.754 128,24Z" style="fill:rgb(26,26,26);"/>
    <g transform="matrix(0.080541,0,0,0.080541,-96.343262,-82.887915)">
        <path d="M1525.222,1912L1525.222,1734.649L1788.607,1734.649L1788.607,1734.36L2408.422,1734.36L2264.422,1911.96L1773.622,1911.96L1773.622,1912L1525.222,1912Z" style="fill:rgb(248,81,73);"/>
        <path d="M1525.222,1631L1525.222,1422.36L2455.222,1422.36L2294.422,1631.16L1788.607,1631.16L1788.607,1631L1525.222,1631Z" style="fill:rgb(46,160,67);"/>
        <path d="M1786.607,2016.36L2456.422,2016.36L2298.022,2225.16L1525.222,2225.16L1525.222,2017.053L1786.607,2017.053L1786.607,2016.36Z" style="fill:rgb(46,160,67);"/>
    </g>
</svg>
